<svg width="100" height="102" viewBox="0 0 100 102" fill="none" xmlns="http://www.w3.org/2000/svg">
<path d="M51 102C41.5945 102 32.3721 99.399 24.3526 94.4846C16.333 89.5703 9.82869 82.5339 5.55867 74.1535C1.28864 65.7731 -0.580734 56.3751 0.157216 46.9986C0.895167 37.622 4.2117 28.6322 9.74013 21.023C15.2686 13.4137 22.7936 7.48149 31.4831 3.88214C40.1727 0.282799 49.6884 -0.843456 58.9782 0.627895C68.2679 2.09925 76.9698 6.11089 84.1219 12.2193C91.2739 18.3277 96.5974 26.2949 99.5039 35.2401L91.7444 37.7613C89.3029 30.2471 84.831 23.5545 78.8232 18.4233C72.8153 13.292 65.5055 9.92217 57.7018 8.6862C49.8982 7.45023 41.9048 8.39631 34.6054 11.4198C27.3059 14.4434 20.9847 19.4266 16.3407 25.8185C11.6967 32.2105 8.91071 39.7622 8.29082 47.6387C7.67092 55.5152 9.24124 63.4098 12.8282 70.4495C16.4151 77.4893 21.8789 83.4 28.6155 87.5282C35.3521 91.6564 43.0991 93.8412 51 93.8412L51 102Z" fill="#FD9031"/>
</svg>
