<svg width="100" height="102" viewBox="0 0 100 102" fill="none" xmlns="http://www.w3.org/2000/svg">
<path d="M51 102C41.5945 102 32.3721 99.399 24.3526 94.4846C16.333 89.5703 9.82869 82.5339 5.55867 74.1535C1.28864 65.7731 -0.580734 56.3751 0.157216 46.9986C0.895167 37.622 4.2117 28.6322 9.74013 21.023C15.2686 13.4137 22.7936 7.48149 31.4831 3.88214C40.1727 0.282799 49.6884 -0.843456 58.9782 0.627895C68.2679 2.09925 76.9698 6.11089 84.1219 12.2193C91.2739 18.3277 96.5974 26.2949 99.5039 35.2401L91.8251 37.7351C89.3787 30.2061 84.898 23.5002 78.8782 18.3588C72.8585 13.2174 65.5342 9.84089 57.7151 8.60247C49.8961 7.36406 41.8868 8.31201 34.5729 11.3415C27.259 14.371 20.9253 19.3641 16.2721 25.7687C11.6189 32.1733 8.82743 39.7399 8.20631 47.6321C7.58519 55.5242 9.15861 63.4343 12.7526 70.488C16.3467 77.5417 21.8213 83.4641 28.5712 87.6004C35.3212 91.7368 43.0835 93.926 51 93.926L51 102Z" fill="#FD9031"/>
</svg>
