<svg width="102" height="102" viewBox="0 0 102 102" fill="none" xmlns="http://www.w3.org/2000/svg">
<path d="M51 102C40.2299 102 29.7362 98.5904 21.0229 92.2599C12.3097 85.9293 5.82427 77.0029 2.49612 66.7599C-0.83204 56.5168 -0.832039 45.4831 2.49612 35.2401C5.82428 24.9971 12.3097 16.0707 21.023 9.74013C29.7362 3.4096 40.2299 -2.21477e-06 51 0C61.7702 2.21477e-06 72.2638 3.40961 80.9771 9.74014C89.6903 16.0707 96.1757 24.9971 99.5039 35.2401C102.832 45.4832 102.832 56.5169 99.5039 66.7599L91.7096 64.2274C94.5029 55.6303 94.503 46.3697 91.7096 37.7727C88.9163 29.1756 83.473 21.6836 76.1599 16.3703C68.8469 11.0571 60.0395 8.19539 51 8.19538C41.9606 8.19538 33.1532 11.0571 25.8401 16.3703C18.527 21.6836 13.0837 29.1756 10.2904 37.7726C7.49705 46.3697 7.49705 55.6303 10.2904 64.2273C13.0837 72.8244 18.527 80.3164 25.8401 85.6297C33.1531 90.9429 41.9606 93.8046 51 93.8046L51 102Z" fill="#FD9031"/>
</svg>
