<svg width="100" height="100" viewBox="0 0 100 100" fill="none" xmlns="http://www.w3.org/2000/svg">
<path d="M50 100C38.0948 100 26.5803 95.7521 17.5276 88.0203C8.47484 80.2885 2.47796 69.5803 0.615583 57.8217C-1.24679 46.0631 1.14757 34.0259 7.36799 23.8751C13.5884 13.7243 23.2267 6.12607 34.5492 2.44717C45.8716 -1.23172 58.1352 -0.749882 69.1342 3.80602C80.1331 8.36193 89.1455 16.6929 94.5503 27.3005C99.9552 37.9081 101.398 50.0961 98.6185 61.6723C95.8393 73.2485 89.0207 83.4532 79.3893 90.4509L74.6463 83.9227C82.7234 78.0544 88.4416 69.4966 90.7722 59.7886C93.1029 50.0806 91.8932 39.8595 87.3606 30.9638C82.828 22.0681 75.2701 15.0817 66.0462 11.261C56.8223 7.44034 46.5379 7.03626 37.0427 10.1214C27.5475 13.2066 19.4647 19.5786 14.2481 28.0912C9.03157 36.6039 7.02362 46.6985 8.58544 56.5594C10.1473 66.4204 15.1763 75.4004 22.7681 81.8844C30.3599 88.3684 40.0161 91.9308 50 91.9308L50 100Z" fill="#FD9031"/>
</svg>
